<?xml version="1.0" encoding="UTF-8" standalone="no"?>
<!DOCTYPE svg PUBLIC "-//W3C//DTD SVG 1.1//EN" "http://www.w3.org/Graphics/SVG/1.1/DTD/svg11.dtd">
<svg width="100%" height="100%" viewBox="0 0 1024 1024" version="1.1" xmlns="http://www.w3.org/2000/svg" xmlns:xlink="http://www.w3.org/1999/xlink" xml:space="preserve" xmlns:serif="http://www.serif.com/" style="fill-rule:evenodd;clip-rule:evenodd;stroke-linejoin:round;stroke-miterlimit:2;">
    <g transform="matrix(1,0,0,1,-1802.01,-4.26326e-14)">
        <g id="Artboard2" transform="matrix(0.588685,0,0,0.81609,802.247,-97.9835)">
            <rect x="1698.3" y="120.065" width="1739.47" height="1254.76" style="fill:none;"/>
            <g id="cl1st_logo_block" transform="matrix(1.6987,0,0,1.22536,-1362.78,120.065)">
                <path d="M2826.01,0L1802.01,0L1802.01,1024L2826.01,1024L2826.01,0ZM2619.57,748.31C2613.22,748.31 2607.66,747.307 2602.9,745.3C2598.14,743.293 2594.43,740.516 2591.77,736.969C2589.11,733.422 2587.78,729.269 2587.78,724.508L2608.78,724.508C2608.78,729.735 2612.38,732.349 2619.57,732.349L2625.73,732.349C2633.57,732.349 2637.49,729.829 2637.49,724.788C2637.49,720.215 2633.85,717.414 2626.57,716.388L2615.51,714.988C2598.52,712.841 2590.02,704.907 2590.02,691.186C2590.02,683.718 2592.59,678.071 2597.72,674.244C2602.86,670.417 2610.37,668.504 2620.27,668.504L2625.59,668.504C2635.01,668.504 2642.53,670.557 2648.13,674.664C2653.73,678.771 2656.53,684.278 2656.53,691.186L2635.53,691.186C2635.53,686.705 2632.21,684.465 2625.59,684.465L2620.27,684.465C2613.64,684.465 2610.33,686.705 2610.33,691.186C2610.33,695.386 2613.36,697.906 2619.43,698.746L2630.77,700.286C2648.78,702.526 2657.79,710.601 2657.79,724.508C2657.79,732.069 2655.08,737.926 2649.67,742.08C2644.26,746.234 2636.27,748.31 2625.73,748.31L2619.57,748.31ZM2107.31,748.31C2079.12,748.31 2054.4,743 2033.15,732.379C2011.91,721.758 1995.5,706.888 1983.91,687.77C1972.33,668.652 1966.53,646.348 1966.53,620.858L1966.53,545.545C1966.53,519.668 1972.33,497.267 1983.91,478.342C1995.5,459.418 2011.91,444.645 2033.15,434.024C2054.4,423.402 2079.12,418.092 2107.31,418.092C2149.41,418.092 2183.01,428.713 2208.11,449.955C2233.22,471.197 2246.54,500.164 2248.09,536.855L2163.51,536.855C2162.35,523.337 2156.65,512.716 2146.41,504.992C2136.18,497.267 2123.14,493.405 2107.31,493.405C2089.93,493.405 2076.61,497.846 2067.34,506.73C2058.07,515.613 2053.43,528.551 2053.43,545.545L2053.43,620.858C2053.43,637.465 2058.07,650.307 2067.34,659.383C2076.61,668.459 2089.93,672.997 2107.31,672.997C2123.14,672.997 2136.18,669.232 2146.41,661.7C2156.65,654.169 2162.35,643.452 2163.51,629.548L2248.09,629.548C2246.54,666.239 2233.22,695.205 2208.11,716.447C2183.01,737.689 2149.41,748.31 2107.31,748.31ZM2453.3,670.101L2492.94,670.101L2492.94,497.46L2385.18,577.408L2385.18,487.612L2484.25,418.092L2579.84,418.092L2579.84,748.31L2453.08,748.31L2492.93,719.432L2492.93,698.473L2453.3,670.101ZM2422.29,748.31L2385.76,748.31C2363.36,748.31 2343.67,743.579 2326.67,734.117C2309.68,724.654 2296.45,711.426 2286.99,694.433C2277.53,677.439 2272.79,657.742 2272.79,635.341L2272.79,403.609L2171.41,403.609L2171.41,325.399L2359.69,325.399L2359.69,632.444C2359.69,643.645 2362.88,652.721 2369.25,659.673C2375.63,666.625 2384.03,670.101 2394.45,670.101L2422.13,670.101L2478.07,709.078L2422.29,748.31ZM2706.79,746.91C2698.95,746.91 2692.79,744.67 2688.31,740.19C2683.83,735.709 2681.59,729.549 2681.59,721.708L2681.59,688.805L2661.29,688.805L2661.29,669.904L2681.59,669.904L2681.59,648.202L2702.59,648.202L2702.59,669.904L2731.3,669.904L2731.3,688.805L2702.59,688.805L2702.59,721.008C2702.59,723.062 2703.13,724.742 2704.2,726.049C2705.28,727.355 2706.84,728.009 2708.89,728.009L2729.89,728.009L2729.89,746.91L2706.79,746.91ZM2521.62,275.69C2553.75,275.69 2579.84,302.463 2579.84,335.439C2579.84,368.416 2553.75,395.189 2521.62,395.189C2489.49,395.189 2463.4,368.416 2463.4,335.439C2463.4,302.463 2489.49,275.69 2521.62,275.69Z"/>
            </g>
        </g>
    </g>
</svg>
