<?xml version="1.0" encoding="UTF-8" standalone="no"?>
<!DOCTYPE svg PUBLIC "-//W3C//DTD SVG 1.1//EN" "http://www.w3.org/Graphics/SVG/1.1/DTD/svg11.dtd">
<svg width="100%" height="100%" viewBox="0 0 1024 1024" version="1.1" xmlns="http://www.w3.org/2000/svg" xmlns:xlink="http://www.w3.org/1999/xlink" xml:space="preserve" xmlns:serif="http://www.serif.com/" style="fill-rule:evenodd;clip-rule:evenodd;stroke-linejoin:round;stroke-miterlimit:2;">
    <rect id="Artboard1" x="0" y="0" width="1024" height="1024" style="fill:none;"/>
    <g id="Artboard11" serif:id="Artboard1">
        <g id="cl1st_logo" transform="matrix(1.88041,0,0,1.88041,-77.9471,-303.282)">
            <path d="M476.226,559.236C472.851,559.236 469.897,558.702 467.366,557.635C464.834,556.568 462.861,555.091 461.446,553.205C460.031,551.318 459.324,549.11 459.324,546.578L470.493,546.578C470.493,549.358 472.404,550.748 476.226,550.748L479.502,550.748C483.672,550.748 485.757,549.407 485.757,546.727C485.757,544.295 483.821,542.805 479.949,542.259L474.067,541.515C465.033,540.373 460.515,536.154 460.515,528.857C460.515,524.886 461.881,521.883 464.611,519.847C467.341,517.812 471.337,516.795 476.598,516.795L479.428,516.795C484.441,516.795 488.437,517.887 491.416,520.071C494.394,522.255 495.883,525.184 495.883,528.857L484.714,528.857C484.714,526.474 482.952,525.283 479.428,525.283L476.598,525.283C473.074,525.283 471.312,526.474 471.312,528.857C471.312,531.091 472.925,532.431 476.152,532.878L482.183,533.697C491.763,534.888 496.553,539.182 496.553,546.578C496.553,550.599 495.114,553.714 492.235,555.922C489.356,558.131 485.111,559.236 479.502,559.236L476.226,559.236ZM203.809,559.236C188.815,559.236 175.67,556.412 164.374,550.763C153.077,545.115 144.348,537.208 138.186,527.041C132.024,516.874 128.944,505.012 128.944,491.457L128.944,451.405C128.944,437.644 132.024,425.731 138.186,415.667C144.348,405.603 153.077,397.747 164.374,392.098C175.67,386.45 188.815,383.626 203.809,383.626C226.196,383.626 244.066,389.274 257.416,400.571C270.766,411.867 277.853,427.272 278.674,446.784L233.693,446.784C233.077,439.595 230.048,433.947 224.605,429.839C219.162,425.731 212.23,423.677 203.809,423.677C194.566,423.677 187.48,426.039 182.551,430.763C177.621,435.487 175.157,442.368 175.157,451.405L175.157,491.457C175.157,500.288 177.621,507.118 182.551,511.944C187.48,516.771 194.566,519.184 203.809,519.184C212.23,519.184 219.162,517.182 224.605,513.177C230.048,509.172 233.077,503.472 233.693,496.078L278.674,496.078C277.853,515.59 270.766,530.994 257.416,542.291C244.066,553.588 226.196,559.236 203.809,559.236ZM387.807,517.644L408.885,517.644L408.885,425.834L351.581,468.35L351.581,420.596L404.264,383.626L455.098,383.626L455.098,559.236L387.69,559.236L408.881,543.878L408.881,532.732L387.807,517.644ZM371.316,559.236L351.89,559.236C339.978,559.236 329.503,556.72 320.466,551.688C311.428,546.656 304.394,539.621 299.362,530.584C294.329,521.546 291.813,511.071 291.813,499.159L291.813,375.924L237.898,375.924L237.898,334.332L338.027,334.332L338.027,497.618C338.027,503.575 339.721,508.401 343.11,512.098C346.499,515.795 350.966,517.644 356.512,517.644L371.23,517.644L400.977,538.372L371.316,559.236ZM522.614,558.491C518.444,558.491 515.168,557.3 512.785,554.917C510.402,552.535 509.211,549.258 509.211,545.089L509.211,527.591L498.415,527.591L498.415,517.539L509.211,517.539L509.211,505.998L520.38,505.998L520.38,517.539L535.644,517.539L535.644,527.591L520.38,527.591L520.38,544.716C520.38,545.809 520.665,546.702 521.236,547.397C521.807,548.092 522.638,548.439 523.731,548.439L534.899,548.439L534.899,558.491L522.614,558.491ZM424.138,307.897C441.226,307.897 455.098,322.134 455.098,339.671C455.098,357.208 441.226,371.446 424.138,371.446C407.051,371.446 393.178,357.208 393.178,339.671C393.178,322.134 407.051,307.897 424.138,307.897Z" style="fill-rule:nonzero;"/>
        </g>
    </g>
</svg>
